<?xml version="1.0" standalone="no"?><svg xmlns="http://www.w3.org/2000/svg" viewBox="0 0 1440 320"><path fill="#0e0e0e" fill-opacity="1" d="M0,128L15,106.7C30,85,60,43,90,42.7C120,43,150,85,180,96C210,107,240,85,270,112C300,139,330,213,360,208C390,203,420,117,450,117.3C480,117,510,203,540,218.7C570,235,600,181,630,149.3C660,117,690,107,720,133.3C750,160,780,224,810,261.3C840,299,870,309,900,261.3C930,213,960,107,990,53.3C1020,0,1050,0,1080,32C1110,64,1140,128,1170,149.3C1200,171,1230,149,1260,122.7C1290,96,1320,64,1350,64C1380,64,1410,96,1425,112L1440,128L1440,0L1425,0C1410,0,1380,0,1350,0C1320,0,1290,0,1260,0C1230,0,1200,0,1170,0C1140,0,1110,0,1080,0C1050,0,1020,0,990,0C960,0,930,0,900,0C870,0,840,0,810,0C780,0,750,0,720,0C690,0,660,0,630,0C600,0,570,0,540,0C510,0,480,0,450,0C420,0,390,0,360,0C330,0,300,0,270,0C240,0,210,0,180,0C150,0,120,0,90,0C60,0,30,0,15,0L0,0Z"></path></svg>